<svg width="800" height="800" viewBox="0 0 24 24" xmlns="http://www.w3.org/2000/svg" fill="none"><path d="M14 22h-4c-3.771 0-5.657 0-6.828-1.172-1.172-1.171-1.172-3.057-1.172-6.828v-2c0-3.771 0-5.657 1.172-6.828 1.172-1.172 3.057-1.172 6.828-1.172h4c3.771 0 5.657 0 6.828 1.172 1.172 1.172 1.172 3.057 1.172 6.828v2c0 3.771 0 5.657-1.172 6.828-.653.653-1.528.942-2.828 1.07M7 4v-1.5M17 4v-1.5M21.5 9h-10.75m-8.75 0h3.875" stroke="#000" stroke-width="1.5" stroke-linecap="round"/><path d="M18 17c0 .552-.448 1-1 1s-1-.448-1-1 .448-1 1-1 1 .448 1 1zM18 13c0 .552-.448 1-1 1s-1-.448-1-1 .448-1 1-1 1 .448 1 1zM13 17c0 .552-.448 1-1 1s-1-.448-1-1 .448-1 1-1 1 .448 1 1zM13 13c0 .552-.448 1-1 1s-1-.448-1-1 .448-1 1-1 1 .448 1 1zM8 17c0 .552-.448 1-1 1s-1-.448-1-1 .448-1 1-1 1 .448 1 1zM8 13c0 .552-.448 1-1 1s-1-.448-1-1 .448-1 1-1 1 .448 1 1z" fill="#000"/></svg>