<?xml version="1.0" encoding="utf-8"?>
<svg width="150.72913px" height="188.29999px" viewBox="0 0 150.72913 188.29999" version="1.1" xmlns:xlink="http://www.w3.org/1999/xlink" xmlns="http://www.w3.org/2000/svg">
  <g id="Group">
    <path d="M53.271 38.0256C51.1436 45.0769 50.0001 52.5549 50.0001 60.3C50.0001 102.826 84.4742 137.3 127 137.3C135.28 137.3 143.255 135.993 150.729 133.574C141.176 165.24 111.781 188.3 77 188.3C34.4741 188.3 0 153.826 0 111.3C0 77.054 22.3566 48.0296 53.271 38.0256Z" id="Oval-Subtract" fill="#252E49" fill-rule="evenodd" stroke="none" />
    <path d="M104.5 58.3L110.819 71.1031L124.948 73.1561L114.724 83.1219L117.137 97.1938L104.5 90.55L91.8627 97.1939L94.2762 83.122L84.0523 73.1562L98.1813 71.1031L104.5 58.3Z" id="Star" fill="#252E49" fill-rule="evenodd" stroke="none" />
    <path d="M138.2 13L141.874 20.4436L150.088 21.6373L144.144 27.4313L145.547 35.6127L138.2 31.75L130.853 35.6127L132.256 27.4314L126.312 21.6373L134.526 20.4437L138.2 13Z" id="Star-Copy" fill="#252E49" fill-rule="evenodd" stroke="none" />
    <path d="M97.5 0L99.4103 3.87069L103.682 4.49138L100.591 7.5043L101.321 11.7586L97.5 9.75L93.6794 11.7586L94.4091 7.50432L91.3181 4.49142L95.5897 3.8707L97.5 0Z" id="Star-Copy-2" fill="#252E49" fill-rule="evenodd" stroke="none" />
  </g>
</svg>