<?xml version="1.0" encoding="utf-8"?>
<svg width="387.5px" height="387.5px" viewBox="0 0 387.5 387.5" version="1.1" xmlns:xlink="http://www.w3.org/1999/xlink" xmlns="http://www.w3.org/2000/svg">
  <g id="Group">
    <path d="M173.75 20L173.75 68C173.75 73.5228 175.703 78.2369 179.608 82.1421C183.513 86.0474 188.227 88 193.75 88C199.273 88 203.987 86.0474 207.892 82.1421C211.797 78.2369 213.75 73.5228 213.75 68L213.75 20C213.75 14.4771 211.797 9.76311 207.892 5.85786C203.987 1.95262 199.273 0 193.75 0C188.227 0 183.513 1.95262 179.608 5.85786C175.703 9.76311 173.75 14.4771 173.75 20L173.75 20Z" id="Vector" fill="#EEF5FF" fill-rule="evenodd" stroke="none" />
    <path d="M173.75 319.5L173.75 367.5C173.75 373.023 175.703 377.737 179.608 381.642C183.513 385.547 188.227 387.5 193.75 387.5C199.273 387.5 203.987 385.547 207.892 381.642C211.797 377.737 213.75 373.023 213.75 367.5L213.75 319.5C213.75 313.977 211.797 309.263 207.892 305.358C203.987 301.453 199.273 299.5 193.75 299.5C188.227 299.5 183.513 301.453 179.608 305.358C175.703 309.263 173.75 313.977 173.75 319.5L173.75 319.5Z" id="Vector" fill="#EEF5FF" fill-rule="evenodd" stroke="none" />
    <path d="M90.6892 118.973L56.7481 85.0322C54.8728 83.1569 53.4276 80.994 52.4127 78.5438C51.3977 76.0935 50.8903 73.5423 50.8903 70.8901C50.8903 68.2379 51.3977 65.6867 52.4127 63.2364C53.4276 60.7861 54.8728 58.6233 56.7481 56.748C60.6534 52.8427 65.3674 50.8901 70.8903 50.8901C76.4131 50.8901 81.1272 52.8427 85.0324 56.748L118.974 90.6891C122.879 94.5944 124.831 99.3084 124.831 104.831C124.831 110.354 122.879 115.068 118.973 118.973C115.068 122.879 110.354 124.831 104.831 124.831C99.3085 124.831 94.5944 122.879 90.6892 118.973L90.6892 118.973Z" id="Vector" fill="#EEF5FF" fill-rule="evenodd" stroke="none" />
    <path d="M302.468 330.752L268.526 296.811C264.621 292.906 262.669 288.192 262.669 282.669C262.669 277.146 264.621 272.432 268.526 268.527C272.432 264.621 277.146 262.669 282.669 262.669C288.191 262.669 292.905 264.621 296.811 268.527L330.752 302.468C332.627 304.343 334.072 306.506 335.087 308.956C336.102 311.406 336.61 313.958 336.61 316.61C336.61 319.262 336.102 321.813 335.087 324.263C334.072 326.714 332.627 328.877 330.752 330.752C328.876 332.627 326.714 334.073 324.263 335.087C321.813 336.102 319.262 336.61 316.61 336.61C313.958 336.61 311.406 336.102 308.956 335.087C306.506 334.073 304.343 332.627 302.468 330.752L302.468 330.752Z" id="Vector" fill="#EEF5FF" fill-rule="evenodd" stroke="none" />
    <path d="M268.526 90.6891L302.468 56.748C306.373 52.8427 311.087 50.8901 316.61 50.8901C322.132 50.8901 326.847 52.8427 330.752 56.7479C332.627 58.6233 334.072 60.7861 335.087 63.2364C336.102 65.6867 336.61 68.2379 336.61 70.8901C336.61 73.5422 336.102 76.0935 335.087 78.5437C334.072 80.994 332.627 83.1568 330.752 85.0322L296.811 118.973C292.905 122.879 288.191 124.831 282.669 124.831C277.146 124.831 272.432 122.879 268.526 118.973C264.621 115.068 262.669 110.354 262.669 104.831C262.669 99.3084 264.621 94.5943 268.526 90.6891L268.526 90.6891Z" id="Vector" fill="#EEF5FF" fill-rule="evenodd" stroke="none" />
    <path d="M90.6892 268.527L56.7481 302.468C52.8429 306.373 50.8903 311.087 50.8903 316.61C50.8903 322.133 52.8429 326.847 56.7482 330.752C60.6534 334.657 65.3674 336.61 70.8903 336.61C76.4131 336.61 81.1272 334.657 85.0324 330.752L118.974 296.811C122.879 292.906 124.831 288.192 124.831 282.669C124.831 277.146 122.879 272.432 118.973 268.527C115.068 264.621 110.354 262.669 104.831 262.669C99.3085 262.669 94.5945 264.621 90.6892 268.527L90.6892 268.527Z" id="Vector" fill="#EEF5FF" fill-rule="evenodd" stroke="none" />
    <path d="M367.5 173.75L319.5 173.75C313.977 173.75 309.263 175.702 305.358 179.608C301.453 183.513 299.5 188.227 299.5 193.75C299.5 199.273 301.453 203.987 305.358 207.892C309.263 211.797 313.977 213.75 319.5 213.75L367.5 213.75C373.023 213.75 377.737 211.797 381.642 207.892C385.547 203.987 387.5 199.273 387.5 193.75C387.5 188.227 385.547 183.513 381.642 179.608C377.737 175.702 373.023 173.75 367.5 173.75L367.5 173.75Z" id="Vector" fill="#EEF5FF" fill-rule="evenodd" stroke="none" />
    <path d="M20 173.75L68 173.75C73.5228 173.75 78.2369 175.703 82.1421 179.608C86.0473 183.513 88 188.227 88 193.75C88 199.273 86.0474 203.987 82.1422 207.892C78.2369 211.797 73.5229 213.75 68 213.75L20 213.75C17.3479 213.75 14.7966 213.243 12.3464 212.228C9.89607 211.213 7.73325 209.768 5.85788 207.892C3.98251 206.017 2.53736 203.854 1.52242 201.404C0.507477 198.954 3.8147e-06 196.402 0 193.75C-1.14441e-05 188.227 1.95261 183.513 5.85784 179.608C9.76308 175.703 14.4771 173.75 20 173.75L20 173.75Z" id="Vector" fill="#EEF5FF" fill-rule="evenodd" stroke="none" />
    <path d="M116.75 194C116.75 151.474 151.224 117 193.75 117C236.276 117 270.75 151.474 270.75 194C270.75 236.526 236.276 271 193.75 271C151.224 271 116.75 236.526 116.75 194Z" id="Oval" fill="#EEF5FF" fill-rule="evenodd" stroke="none" />
  </g>
</svg>