<svg width="20" height="20" viewBox="0 0 24 24" xmlns="http://www.w3.org/2000/svg"
                            fill="none">
                            <path
                                d="M7.75 2.5c0-.414-.336-.75-.75-.75s-.75.336-.75.75v1.579c-1.439.115-2.384.398-3.078 1.092-.694.694-.977 1.639-1.092 3.078h19.841c-.115-1.439-.398-2.384-1.092-3.078-.694-.694-1.639-.977-3.078-1.092v-1.579c0-.414-.336-.75-.75-.75s-.75.336-.75.75v1.513c-.665-.013-1.411-.013-2.25-.013h-4c-.839 0-1.585 0-2.25.013v-1.513z"
                                fill="#000000" />
                            <path fill-rule="evenodd" clip-rule="evenodd"
                                d="M22 12v2c0 3.771 0 5.657-1.172 6.828-1.171 1.172-3.057 1.172-6.828 1.172h-4c-3.771 0-5.657 0-6.828-1.172-1.172-1.171-1.172-3.057-1.172-6.828v-2c0-.839 0-1.585.013-2.25h19.974c.013.665.013 1.411.013 2.25zm-5.5 6c.828 0 1.5-.672 1.5-1.5s-.672-1.5-1.5-1.5-1.5.672-1.5 1.5.672 1.5 1.5 1.5z"
                                fill="#000000" />
                        </svg>