<?xml version="1.0" encoding="utf-8"?>
<svg width="1920px" height="1080px" viewBox="0 0 711 244" version="1.1" xmlns:xlink="http://www.w3.org/1999/xlink" xmlns="http://www.w3.org/2000/svg">
  <g id="МАВЛИД" fill="#126BB9">
    <path d="M422.754 201.053L463.965 201.053L463.965 42.8496L369.531 42.8496L369.531 159.256Q369.531 170.096 366.699 171.951Q363.867 173.807 356.348 173.807L356.348 201.053L362.788 201.053Q383.086 201.053 392.356 199.1Q401.627 197.146 406.184 189.432Q410.742 181.717 410.742 164.041L410.742 74.4902L422.754 74.4902L422.754 201.053ZM572.168 201.053L537.793 201.053L537.793 129.08L516.406 201.053L480.371 201.053L480.371 42.8496L514.746 42.8496L514.746 114.236L537.793 42.8496L572.168 42.8496L572.168 201.053ZM677.734 228.299L706.152 228.299L706.152 167.85L697.754 167.85L697.754 42.8496L606.543 42.8496L606.543 47.6348Q606.543 85.2324 602.295 116.922Q598.047 148.611 591.406 168.045L583.008 168.045L583.008 228.299L611.328 228.299L611.328 201.053L677.734 201.053L677.734 228.299ZM135.059 201.053L135.059 42.9473L81.5674 42.9473L72.1191 116.775L66.2811 76.5593Q63.768 57.2051 61.4014 42.9473L8.20313 42.9473L8.20313 201.053L44.1406 201.053L44.1895 96.7559L59.2773 201.053L84.7656 201.053L99.0723 94.3145L99.1211 201.053L135.059 201.053ZM246.143 201.053L222.632 42.9473L163.208 42.9473L142.236 201.053L184.741 201.053L187.213 172.635L201.92 172.635L204.126 201.053L246.143 201.053ZM253.125 42.9473L294.141 42.9473Q313.574 42.9473 323.584 45.9723Q333.594 48.9974 339.746 58.2198Q345.898 67.4422 345.898 87.9363Q345.898 101.794 341.553 107.259Q337.207 112.724 324.414 115.652Q338.672 118.877 343.75 126.352Q348.828 133.827 348.828 149.266L348.828 163.922Q348.828 179.947 345.166 187.666Q341.504 195.386 333.496 198.219Q325.488 201.053 300.684 201.053L253.125 201.053L253.125 42.9473ZM294.238 69.998L294.238 105.154Q296.875 105.057 298.34 105.057Q304.395 105.057 306.055 102.078Q307.715 99.0996 307.715 85.0371Q307.715 77.6152 306.348 74.6367Q304.98 71.6582 302.783 70.877Q300.586 70.0957 294.238 69.998ZM656.543 74.0996L656.543 167.85L634.57 167.85Q644.336 120.682 644.336 75.2715L644.336 74.0996L656.543 74.0996ZM194.58 78.2012Q197.722 117.746 200.842 144.607L186.69 144.607Q188.298 123.613 194.58 78.2012ZM294.238 129.764L294.238 174.002Q302.93 173.709 305.322 171.268Q307.715 168.826 307.715 159.256L307.715 144.51Q307.715 134.354 305.566 132.205Q303.418 130.057 294.238 129.764Z" />
  </g>
</svg>